<?xml version="1.0" encoding="UTF-8"?>
<svg xmlns="http://www.w3.org/2000/svg" xmlns:xlink="http://www.w3.org/1999/xlink"
     width="420" height="500" viewBox="0 -500 420 500">
<defs>
</defs>
<path d="M50,-50 L370,-50" stroke="black" stroke-width="2" />
<path d="M50,-90 L370,-90" stroke="gray" stroke-width="1" />
<path d="M50,-130 L370,-130" stroke="gray" stroke-width="1" />
<path d="M50,-170 L370,-170" stroke="gray" stroke-width="1" />
<path d="M50,-210 L370,-210" stroke="gray" stroke-width="1" />
<path d="M50,-250 L370,-250" stroke="gray" stroke-width="1" />
<path d="M50,-290 L370,-290" stroke="gray" stroke-width="1" />
<path d="M50,-330 L370,-330" stroke="gray" stroke-width="1" />
<path d="M50,-370 L370,-370" stroke="gray" stroke-width="1" />
<path d="M50,-410 L370,-410" stroke="gray" stroke-width="1" />
<path d="M50,-450 L370,-450" stroke="black" stroke-width="2" />
<path d="M50,-50 L50,-450" stroke="black" stroke-width="2" />
<path d="M90,-50 L90,-450" stroke="gray" stroke-width="1" />
<path d="M130,-50 L130,-450" stroke="gray" stroke-width="1" />
<path d="M170,-50 L170,-450" stroke="gray" stroke-width="1" />
<path d="M210,-50 L210,-450" stroke="gray" stroke-width="1" />
<path d="M250,-50 L250,-450" stroke="gray" stroke-width="1" />
<path d="M290,-50 L290,-450" stroke="gray" stroke-width="1" />
<path d="M330,-50 L330,-450" stroke="gray" stroke-width="1" />
<path d="M370,-50 L370,-450" stroke="black" stroke-width="2" />
<circle cx="190.0" cy="-390.0" r="15" fill="white" stroke-width="2" stroke="black" />
<circle cx="230.0" cy="-390.0" r="15" fill="white" stroke-width="2" stroke="black" />
<circle cx="110.0" cy="-310.0" r="15" fill="white" stroke-width="2" stroke="black" />
<circle cx="310.0" cy="-310.0" r="15" fill="white" stroke-width="2" stroke="black" />
<circle cx="110.0" cy="-270.0" r="15" fill="white" stroke-width="2" stroke="black" />
<circle cx="310.0" cy="-270.0" r="15" fill="white" stroke-width="2" stroke="black" />
<circle cx="70.0" cy="-190.0" r="15" fill="white" stroke-width="2" stroke="black" />
<circle cx="150.0" cy="-190.0" r="15" fill="white" stroke-width="2" stroke="black" />
<circle cx="270.0" cy="-190.0" r="15" fill="white" stroke-width="2" stroke="black" />
<circle cx="350.0" cy="-190.0" r="15" fill="white" stroke-width="2" stroke="black" />
<circle cx="70.0" cy="-110.0" r="15" fill="white" stroke-width="2" stroke="black" />
<circle cx="350.0" cy="-110.0" r="15" fill="white" stroke-width="2" stroke="black" />
<circle cx="190.0" cy="-310.0" r="15" fill="black" stroke-width="2" stroke="black" />
<circle cx="230.0" cy="-310.0" r="15" fill="black" stroke-width="2" stroke="black" />
<circle cx="190.0" cy="-270.0" r="15" fill="black" stroke-width="2" stroke="black" />
<circle cx="230.0" cy="-270.0" r="15" fill="black" stroke-width="2" stroke="black" />
<circle cx="110.0" cy="-150.0" r="15" fill="black" stroke-width="2" stroke="black" />
<circle cx="190.0" cy="-150.0" r="15" fill="black" stroke-width="2" stroke="black" />
<circle cx="230.0" cy="-150.0" r="15" fill="black" stroke-width="2" stroke="black" />
<circle cx="310.0" cy="-150.0" r="15" fill="black" stroke-width="2" stroke="black" />
<path d="M210.0,-430.0 L190.0,-430.0" stroke-width="4" stroke="green" />
<path d="M190.0,-430.0 L190.0,-410.0" stroke-width="4" stroke="green" />
<path d="M210.0,-430.0 L230.0,-430.0" stroke-width="4" stroke="green" />
<path d="M230.0,-430.0 L230.0,-410.0" stroke-width="4" stroke="green" />
<path d="M190.0,-370.0 L190.0,-410.0" stroke-width="4" stroke="green" />
<path d="M230.0,-370.0 L230.0,-410.0" stroke-width="4" stroke="green" />
<path d="M190.0,-330.0 L190.0,-370.0" stroke-width="4" stroke="green" />
<path d="M230.0,-330.0 L230.0,-370.0" stroke-width="4" stroke="green" />
<path d="M90.0,-310.0 L70.0,-310.0" stroke-width="4" stroke="green" />
<path d="M70.0,-310.0 L70.0,-290.0" stroke-width="4" stroke="green" />
<path d="M90.0,-310.0 L130.0,-310.0" stroke-width="4" stroke="green" />
<path d="M130.0,-310.0 L170.0,-310.0" stroke-width="4" stroke="green" />
<path d="M170.0,-310.0 L190.0,-310.0" stroke-width="4" stroke="green" />
<path d="M190.0,-310.0 L190.0,-330.0" stroke-width="4" stroke="green" />
<path d="M250.0,-310.0 L230.0,-310.0" stroke-width="4" stroke="green" />
<path d="M230.0,-310.0 L230.0,-330.0" stroke-width="4" stroke="green" />
<path d="M250.0,-310.0 L290.0,-310.0" stroke-width="4" stroke="green" />
<path d="M290.0,-310.0 L330.0,-310.0" stroke-width="4" stroke="green" />
<path d="M330.0,-310.0 L350.0,-310.0" stroke-width="4" stroke="green" />
<path d="M350.0,-310.0 L350.0,-290.0" stroke-width="4" stroke="green" />
<path d="M90.0,-270.0 L70.0,-270.0" stroke-width="4" stroke="green" />
<path d="M70.0,-270.0 L70.0,-290.0" stroke-width="4" stroke="green" />
<path d="M90.0,-270.0 L130.0,-270.0" stroke-width="4" stroke="green" />
<path d="M130.0,-270.0 L170.0,-270.0" stroke-width="4" stroke="green" />
<path d="M170.0,-270.0 L190.0,-270.0" stroke-width="4" stroke="green" />
<path d="M190.0,-270.0 L190.0,-250.0" stroke-width="4" stroke="green" />
<path d="M250.0,-270.0 L230.0,-270.0" stroke-width="4" stroke="green" />
<path d="M230.0,-270.0 L230.0,-250.0" stroke-width="4" stroke="green" />
<path d="M250.0,-270.0 L290.0,-270.0" stroke-width="4" stroke="green" />
<path d="M290.0,-270.0 L330.0,-270.0" stroke-width="4" stroke="green" />
<path d="M330.0,-270.0 L350.0,-270.0" stroke-width="4" stroke="green" />
<path d="M350.0,-270.0 L350.0,-290.0" stroke-width="4" stroke="green" />
<path d="M90.0,-230.0 L70.0,-230.0" stroke-width="4" stroke="green" />
<path d="M70.0,-230.0 L70.0,-210.0" stroke-width="4" stroke="green" />
<path d="M90.0,-230.0 L110.0,-230.0" stroke-width="4" stroke="green" />
<path d="M110.0,-230.0 L110.0,-210.0" stroke-width="4" stroke="green" />
<path d="M190.0,-210.0 L190.0,-250.0" stroke-width="4" stroke="green" />
<path d="M230.0,-210.0 L230.0,-250.0" stroke-width="4" stroke="green" />
<path d="M330.0,-230.0 L310.0,-230.0" stroke-width="4" stroke="green" />
<path d="M310.0,-230.0 L310.0,-210.0" stroke-width="4" stroke="green" />
<path d="M330.0,-230.0 L350.0,-230.0" stroke-width="4" stroke="green" />
<path d="M350.0,-230.0 L350.0,-210.0" stroke-width="4" stroke="green" />
<path d="M70.0,-170.0 L70.0,-210.0" stroke-width="4" stroke="green" />
<path d="M130.0,-190.0 L110.0,-190.0" stroke-width="4" stroke="green" />
<path d="M110.0,-190.0 L110.0,-210.0" stroke-width="4" stroke="green" />
<path d="M130.0,-190.0 L170.0,-190.0" stroke-width="4" stroke="green" />
<path d="M170.0,-190.0 L190.0,-190.0" stroke-width="4" stroke="green" />
<path d="M190.0,-190.0 L190.0,-210.0" stroke-width="4" stroke="green" />
<path d="M250.0,-190.0 L230.0,-190.0" stroke-width="4" stroke="green" />
<path d="M230.0,-190.0 L230.0,-210.0" stroke-width="4" stroke="green" />
<path d="M250.0,-190.0 L290.0,-190.0" stroke-width="4" stroke="green" />
<path d="M290.0,-190.0 L310.0,-190.0" stroke-width="4" stroke="green" />
<path d="M310.0,-190.0 L310.0,-210.0" stroke-width="4" stroke="green" />
<path d="M350.0,-170.0 L350.0,-210.0" stroke-width="4" stroke="green" />
<path d="M70.0,-130.0 L70.0,-170.0" stroke-width="4" stroke="green" />
<path d="M130.0,-150.0 L110.0,-150.0" stroke-width="4" stroke="green" />
<path d="M110.0,-150.0 L110.0,-130.0" stroke-width="4" stroke="green" />
<path d="M130.0,-150.0 L170.0,-150.0" stroke-width="4" stroke="green" />
<path d="M170.0,-150.0 L190.0,-150.0" stroke-width="4" stroke="green" />
<path d="M190.0,-150.0 L190.0,-130.0" stroke-width="4" stroke="green" />
<path d="M250.0,-150.0 L230.0,-150.0" stroke-width="4" stroke="green" />
<path d="M230.0,-150.0 L230.0,-130.0" stroke-width="4" stroke="green" />
<path d="M250.0,-150.0 L290.0,-150.0" stroke-width="4" stroke="green" />
<path d="M290.0,-150.0 L310.0,-150.0" stroke-width="4" stroke="green" />
<path d="M310.0,-150.0 L310.0,-130.0" stroke-width="4" stroke="green" />
<path d="M350.0,-130.0 L350.0,-170.0" stroke-width="4" stroke="green" />
<path d="M70.0,-90.0 L70.0,-130.0" stroke-width="4" stroke="green" />
<path d="M110.0,-90.0 L110.0,-130.0" stroke-width="4" stroke="green" />
<path d="M190.0,-90.0 L190.0,-130.0" stroke-width="4" stroke="green" />
<path d="M230.0,-90.0 L230.0,-130.0" stroke-width="4" stroke="green" />
<path d="M310.0,-90.0 L310.0,-130.0" stroke-width="4" stroke="green" />
<path d="M350.0,-90.0 L350.0,-130.0" stroke-width="4" stroke="green" />
<path d="M90.0,-70.0 L70.0,-70.0" stroke-width="4" stroke="green" />
<path d="M70.0,-70.0 L70.0,-90.0" stroke-width="4" stroke="green" />
<path d="M90.0,-70.0 L110.0,-70.0" stroke-width="4" stroke="green" />
<path d="M110.0,-70.0 L110.0,-90.0" stroke-width="4" stroke="green" />
<path d="M210.0,-70.0 L190.0,-70.0" stroke-width="4" stroke="green" />
<path d="M190.0,-70.0 L190.0,-90.0" stroke-width="4" stroke="green" />
<path d="M210.0,-70.0 L230.0,-70.0" stroke-width="4" stroke="green" />
<path d="M230.0,-70.0 L230.0,-90.0" stroke-width="4" stroke="green" />
<path d="M330.0,-70.0 L310.0,-70.0" stroke-width="4" stroke="green" />
<path d="M310.0,-70.0 L310.0,-90.0" stroke-width="4" stroke="green" />
<path d="M330.0,-70.0 L350.0,-70.0" stroke-width="4" stroke="green" />
<path d="M350.0,-70.0 L350.0,-90.0" stroke-width="4" stroke="green" />
</svg>